<svg xmlns="http://www.w3.org/2000/svg">
<!-- Иконки интерфейса seller.bz: свои, контурные 24×24; цвет и толщину линии задаёт CSS (.ico) -->
<symbol id="i-home" viewBox="0 0 24 24"><path d="M4 11.5 12 5l8 6.5V19a1 1 0 0 1-1 1h-4.5v-5h-5v5H5a1 1 0 0 1-1-1z"/></symbol>
<symbol id="i-orders" viewBox="0 0 24 24"><path d="M6 3.5h12v17l-3-1.8-3 1.8-3-1.8-3 1.8z"/><path d="M9 8.5h6M9 12h6M9 15.5h3.5"/></symbol>
<symbol id="i-box" viewBox="0 0 24 24"><path d="M3.5 7.5 12 3.5l8.5 4v9L12 20.5l-8.5-4z"/><path d="M3.5 7.5 12 11.5l8.5-4M12 11.5v9"/></symbol>
<symbol id="i-chart" viewBox="0 0 24 24"><path d="M4 4v16h16"/><path d="m7.5 14.5 3.5-4 3 2.5 5-6"/></symbol>
<symbol id="i-calendar" viewBox="0 0 24 24"><rect x="3.5" y="5" width="17" height="15" rx="2"/><path d="M3.5 9.5h17M8 3v4M16 3v4"/></symbol>
<symbol id="i-table" viewBox="0 0 24 24"><rect x="3.5" y="4.5" width="17" height="15" rx="2"/><path d="M3.5 9.5h17M3.5 14.5h17M9.5 9.5v10"/></symbol>
<symbol id="i-wallet" viewBox="0 0 24 24"><path d="M4 7.5A2.5 2.5 0 0 1 6.5 5H18v3"/><rect x="4" y="8" width="16.5" height="11.5" rx="2"/><circle cx="16" cy="13.75" r="1.2"/></symbol>
<symbol id="i-megaphone" viewBox="0 0 24 24"><path d="M4 10v4h3l7 4V6L7 10z"/><path d="M17.5 9.5a3.5 3.5 0 0 1 0 5M7 14l1.2 5h2.3l-1-4.5"/></symbol>
<symbol id="i-pin" viewBox="0 0 24 24"><path d="M12 21s-6.5-5.6-6.5-11a6.5 6.5 0 0 1 13 0c0 5.4-6.5 11-6.5 11z"/><circle cx="12" cy="10" r="2.3"/></symbol>
<symbol id="i-calc" viewBox="0 0 24 24"><rect x="5" y="3" width="14" height="18" rx="2"/><path d="M8 7h8M8.5 11.5h.01M12 11.5h.01M15.5 11.5h.01M8.5 15h.01M12 15h.01M15.5 15h.01M8.5 18h.01M12 18h.01M15.5 18h.01"/></symbol>
<symbol id="i-truck" viewBox="0 0 24 24"><path d="M3 6.5h11v10H3zM14 9.5h3.5l3 3.5v3.5H14"/><circle cx="7" cy="17.5" r="1.8"/><circle cx="17" cy="17.5" r="1.8"/></symbol>
<symbol id="i-tag" viewBox="0 0 24 24"><path d="M3.5 12.2V4.5a1 1 0 0 1 1-1h7.7l8.3 8.3-8.7 8.7z"/><circle cx="8" cy="8" r="1.4"/></symbol>
<symbol id="i-coins" viewBox="0 0 24 24"><ellipse cx="9" cy="7" rx="5.5" ry="2.5"/><path d="M3.5 7v4c0 1.4 2.5 2.5 5.5 2.5s5.5-1.1 5.5-2.5V7"/><path d="M9.5 16.3c.8.1 1.6.2 2.5.2 3 0 5.5-1.1 5.5-2.5v-4M20.5 11v6c0 1.4-2.5 2.5-5.5 2.5-2.2 0-4.1-.6-5-1.5"/></symbol>
<symbol id="i-store" viewBox="0 0 24 24"><path d="M4 9.5V20h16V9.5"/><path d="M3 9.5 5 4h14l2 5.5a2.7 2.7 0 0 1-4.5 1.8 2.7 2.7 0 0 1-4.5 0 2.7 2.7 0 0 1-4.5 0A2.7 2.7 0 0 1 3 9.5z"/><path d="M9.5 20v-5h5v5"/></symbol>
<symbol id="i-sun" viewBox="0 0 24 24"><circle cx="12" cy="12" r="4"/><path d="M12 2.5v2M12 19.5v2M4.6 4.6l1.4 1.4M18 18l1.4 1.4M2.5 12h2M19.5 12h2M4.6 19.4 6 18M18 6l1.4-1.4"/></symbol><symbol id="i-moon" viewBox="0 0 24 24"><path d="M20 14.5A8 8 0 0 1 9.5 4a8 8 0 1 0 10.5 10.5z"/></symbol><symbol id="i-user" viewBox="0 0 24 24"><circle cx="12" cy="8.5" r="3.6"/><path d="M5 20c.8-3.8 3.6-5.8 7-5.8s6.2 2 7 5.8"/></symbol><symbol id="i-users" viewBox="0 0 24 24"><circle cx="9" cy="8.5" r="3.2"/><path d="M3 19.5c.6-3.3 3-5 6-5s5.4 1.7 6 5"/><path d="M15.5 5.6a3.2 3.2 0 0 1 0 6M17.5 14.8c1.8.7 3 2.3 3.5 4.7"/></symbol>
<symbol id="i-percent" viewBox="0 0 24 24"><path d="M18.5 5.5 5.5 18.5"/><circle cx="7.5" cy="7.5" r="2.3"/><circle cx="16.5" cy="16.5" r="2.3"/></symbol>
<symbol id="i-shield" viewBox="0 0 24 24"><path d="M12 3.5 19 6v5.5c0 4.3-3 7.6-7 9-4-1.4-7-4.7-7-9V6z"/><path d="m9 12 2.2 2.2L15.5 10"/></symbol>
<symbol id="i-help" viewBox="0 0 24 24"><circle cx="12" cy="12" r="8.5"/><path d="M9.6 9.5a2.5 2.5 0 0 1 4.8.9c0 1.7-2.4 2.1-2.4 3.6M12 17h.01"/></symbol>
<symbol id="i-logout" viewBox="0 0 24 24"><path d="M14 4.5H6.5a1 1 0 0 0-1 1v13a1 1 0 0 0 1 1H14"/><path d="M10.5 12h10M17 8.5l3.5 3.5-3.5 3.5"/></symbol>
<symbol id="i-menu" viewBox="0 0 24 24"><path d="M4 7h16M4 12h16M4 17h16"/></symbol>
<symbol id="i-close" viewBox="0 0 24 24"><path d="M6 6l12 12M18 6 6 18"/></symbol>
<symbol id="i-chevron" viewBox="0 0 24 24"><path d="m7 10 5 5 5-5"/></symbol>
<symbol id="i-arrow" viewBox="0 0 24 24"><path d="M5 12h14M13.5 6.5 19 12l-5.5 5.5"/></symbol>
<symbol id="i-download" viewBox="0 0 24 24"><path d="M12 4v11M7.5 10.5 12 15l4.5-4.5M5 19.5h14"/></symbol>
<symbol id="i-plus" viewBox="0 0 24 24"><path d="M12 5v14M5 12h14"/></symbol>
<symbol id="i-check" viewBox="0 0 24 24"><path d="m5 12.5 4.5 4.5L19 7.5"/></symbol>
<symbol id="i-lock" viewBox="0 0 24 24"><rect x="5" y="10.5" width="14" height="10" rx="2"/><path d="M8 10.5V8a4 4 0 0 1 8 0v2.5"/></symbol>
<symbol id="i-key" viewBox="0 0 24 24"><circle cx="8" cy="15" r="4"/><path d="m11 12 8.5-8.5M16.5 6.5l2.5 2.5M14 9l2 2"/></symbol>
<symbol id="i-eye" viewBox="0 0 24 24"><path d="M2.5 12S6 5.5 12 5.5 21.5 12 21.5 12 18 18.5 12 18.5 2.5 12 2.5 12z"/><circle cx="12" cy="12" r="2.8"/></symbol>
<symbol id="i-send" viewBox="0 0 24 24"><path d="M20.5 4 3.5 11l6.5 2.5L12.5 20z"/><path d="m10 13.5 4-4"/></symbol>
<symbol id="i-bell" viewBox="0 0 24 24"><path d="M6 16.5V11a6 6 0 0 1 12 0v5.5l1.5 1.5h-15z"/><path d="M10 20.5a2 2 0 0 0 4 0"/></symbol>
<symbol id="i-file" viewBox="0 0 24 24"><path d="M6 3.5h8l4 4v13H6z"/><path d="M14 3.5v4h4M9 12.5h6M9 16h6"/></symbol>
<symbol id="i-external" viewBox="0 0 24 24"><path d="M14 4.5h5.5V10M19.5 4.5 11 13"/><path d="M18 14v4.5a1 1 0 0 1-1 1H5.5a1 1 0 0 1-1-1V7a1 1 0 0 1 1-1H10"/></symbol>
<symbol id="i-refresh" viewBox="0 0 24 24"><path d="M19.5 12a7.5 7.5 0 1 1-2.2-5.3"/><path d="M19.5 4.5v4h-4"/></symbol>
<symbol id="i-sliders" viewBox="0 0 24 24"><path d="M4 7h9M17 7h3M4 17h3M11 17h9"/><circle cx="15" cy="7" r="2"/><circle cx="9" cy="17" r="2"/></symbol>
<symbol id="i-spark" viewBox="0 0 24 24"><path d="M12 3.5v4M12 16.5v4M3.5 12h4M16.5 12h4M6 6l2.5 2.5M15.5 15.5 18 18M18 6l-2.5 2.5M8.5 15.5 6 18"/></symbol>
<symbol id="i-palette" viewBox="0 0 24 24"><path d="M12 3.5a8.5 8.5 0 1 0 0 17c1.1 0 1.8-.8 1.8-1.7 0-.5-.2-.9-.5-1.2-.3-.3-.5-.7-.5-1.2 0-.9.8-1.7 1.7-1.7h2a4 4 0 0 0 4-4c0-4.1-3.8-7.2-8.5-7.2Z"/><circle cx="7.6" cy="11" r="1.1"/><circle cx="10" cy="7.3" r="1.1"/><circle cx="14.5" cy="7.3" r="1.1"/><circle cx="17" cy="10.8" r="1.1"/></symbol>
<symbol id="i-split" viewBox="0 0 24 24"><rect x="3.5" y="8.5" width="12" height="12" rx="2"/><path d="M8.5 8.5V5.5a2 2 0 0 1 2-2h8a2 2 0 0 1 2 2v8a2 2 0 0 1-2 2h-3"/></symbol>
</svg>
